# xmcd
#
# Track frame offsets:
#	150
#	15670
#	34415
#	49917
#	69024
#	85217
#	105910
#
# Disc length: 1626 seconds
#
# Revision: 0
# Processed by: cddbd v1.5.2PL0 Copyright (c) Steve Scherf et al.
# Submitted via: EZCDAudioConverter 6.0.8.1
#
DISCID=4c065807
DTITLE=Clayton Gardner - Lucky 7
DYEAR=2013
DGENRE=Country
TTITLE0=Something About You
TTITLE1=Table for Two
TTITLE2=I Ain't Living Like This
TTITLE3=Played It All Wrong
TTITLE4=Roll the Dice
TTITLE5=Old Fashioned Love Song
TTITLE6=She Can't Win
EXTD=
EXTT0=
EXTT1=
EXTT2=
EXTT3=
EXTT4=
EXTT5=
EXTT6=
PLAYORDER=
